<?xml version="1.0" encoding="utf-8"?>
<!-- Generator: Adobe Illustrator 26.1.0, SVG Export Plug-In . SVG Version: 6.00 Build 0)  -->
<svg version="1.1" id="Layer_1" xmlns="http://www.w3.org/2000/svg" xmlns:xlink="http://www.w3.org/1999/xlink" x="0px" y="0px"
	 viewBox="0 0 122.88 122.88" style="enable-background:new 0 0 122.88 122.88;" xml:space="preserve">
<style type="text/css">
	.st0{fill:#FEFFFF;}
	.st1{fill:#223266;stroke:#223266;stroke-width:0.6496;stroke-miterlimit:10;}
	.st2{fill:#56C2F3;stroke:#56C2F3;stroke-width:0.6496;stroke-miterlimit:10;}
	.st3{fill:#223266;stroke:#223266;stroke-width:1.3592;stroke-miterlimit:10;}
	.st4{fill:#FFFFFF;}
	.st5{fill:#56C2F3;}
	.st6{fill:#223266;stroke:#223266;stroke-width:0.6361;stroke-miterlimit:10;}
	.st7{fill:#56C2F3;stroke:#56C2F3;stroke-width:0.6361;stroke-miterlimit:10;}
	.st8{fill:#CD1707;}
</style>
<path class="st0" d="M107.31,122.88H15.57c-8.6,0-15.57-6.97-15.57-15.57V15.57C0,6.97,6.97,0,15.57,0h91.73
	c8.6,0,15.57,6.97,15.57,15.57v91.73C122.88,115.91,115.91,122.88,107.31,122.88z"/>
<g>
	<g>
		<path class="st1" d="M42.35,61.22c0,2.97-2.67,4.67-4.57,4.61C37.34,65.81,37,65.68,37,65.45c0-0.1,0.13-0.19,0.42-0.27
			c1.12-0.32,2.69-1.64,2.69-3.73c0-1.22-0.67-3.22-3.37-3.22c-0.67,0-1.2,0.15-1.26,0.17v11.9c0,0.08-0.06,0.08-0.1,0.1
			c-0.25,0.06-0.7,0.1-1.03,0.1c-0.34,0-0.74-0.04-1.03-0.1c-0.06-0.02-0.1-0.04-0.1-0.1V59.81c0.08-1.75-1.24-1.24-1.24-1.71
			c0-0.5,2.19-1.39,5.12-1.39C40.56,56.71,42.35,58.69,42.35,61.22z"/>
		<path class="st1" d="M43.55,57.68c0-0.67,0.61-1.22,1.35-1.22s1.37,0.55,1.37,1.22c0,0.69-0.63,1.26-1.37,1.26
			S43.55,58.36,43.55,57.68z M43.84,68.74v-7.83c0-0.08,0.04-0.08,0.1-0.09c0.23-0.06,0.55-0.12,0.88-0.12s0.7,0.04,0.99,0.12
			c0.04,0,0.08,0.02,0.08,0.09v6.82c0,1.49,0.61,1.45,1.16,1.49c0.1,0.02,0.13,0.09,0.13,0.19c0,0.32-0.59,1.2-1.71,1.2
			C44.43,70.61,43.84,69.9,43.84,68.74z"/>
		<path class="st1" d="M49.06,63.35c0-1.37-0.61-1.35-1.14-1.39c-0.1-0.02-0.13-0.1-0.13-0.19c0-0.32,0.59-1.18,1.71-1.18
			c0.99,0,1.49,0.65,1.54,1.64c0.02,0.32,0.02,0.65,0.02,0.97h0.06c0.63-1.58,1.96-2.57,3.31-2.61c1.62-0.04,2.63,0.97,2.63,3.01
			c0,1.28,0,2.67,0,4.15c0,1.47,0.61,1.43,1.14,1.48c0.1,0.02,0.15,0.1,0.15,0.19c0,0.3-0.61,1.18-1.73,1.18
			c-1.03,0-1.6-0.69-1.6-1.85V64.1c0-1.6-0.69-2.06-1.41-2.02c-1.2,0.08-2.51,2.04-2.51,4.53v3.67c0,0.08-0.06,0.09-0.1,0.09
			c-0.25,0.06-0.59,0.12-0.91,0.12c-0.34,0-0.69-0.04-0.97-0.12c-0.04,0-0.1-0.02-0.1-0.09C49.04,68.61,49.06,65.43,49.06,63.35z"/>
		<path class="st2" d="M69.59,61.22c0,2.97-2.67,4.67-4.57,4.61c-0.44-0.02-0.78-0.15-0.78-0.38c0-0.1,0.13-0.19,0.42-0.27
			c1.12-0.32,2.69-1.64,2.69-3.73c0-1.22-0.67-3.22-3.37-3.22c-0.67,0-1.2,0.15-1.26,0.17v11.9c0,0.08-0.06,0.08-0.09,0.1
			c-0.25,0.06-0.71,0.1-1.03,0.1c-0.34,0-0.74-0.04-1.03-0.1c-0.06-0.02-0.1-0.04-0.1-0.1V59.81c0.08-1.75-1.24-1.24-1.24-1.71
			c0-0.5,2.19-1.39,5.12-1.39C67.8,56.71,69.59,58.69,69.59,61.22z"/>
		<path class="st2" d="M80.14,69.22c0.09,0.02,0.13,0.09,0.13,0.19c0,0.44-0.69,1.18-1.71,1.18c-1.01,0-1.6-0.67-1.62-2.04h-0.04
			c-0.57,1.26-1.71,2.04-3.08,2.04c-2.23,0-3.75-1.94-3.75-4.95c0-2.63,1.6-5.03,3.9-5.03c1.28,0,2.36,0.67,2.9,1.79h0.06l0.1-1.49
			c0-0.08,0.04-0.08,0.09-0.09c0.27-0.06,0.51-0.1,0.84-0.1s0.7,0.04,0.97,0.1c0.06,0.02,0.09,0.04,0.09,0.09
			c0,1.62-0.04,4.78-0.04,6.84C78.98,69.22,79.59,69.18,80.14,69.22z M76.95,65.66c0-1.81-0.93-3.64-2.46-3.64
			c-1.22,0-2.3,1.39-2.32,3.48c-0.04,2.44,1.12,3.64,2.3,3.64C75.82,69.14,76.95,67.45,76.95,65.66z"/>
		<path class="st2" d="M90.2,70.38c0,3.07-1.64,4.89-4.38,4.89c-2.67,0-3.87-1.79-3.87-2.4c0-0.11,0.08-0.17,0.15-0.17
			c0.42,0,1.16,1.18,3.14,1.18c1.92,0,2.91-1.33,2.91-3.29v-2.57h-0.04c-0.63,1.6-1.94,2.53-3.29,2.57
			c-1.64,0.04-2.65-0.97-2.65-3.03v-4.11c0-1.45-0.63-1.41-1.16-1.45c-0.08,0-0.13-0.09-0.13-0.19c0-0.32,0.59-1.2,1.71-1.2
			c1.03,0,1.64,0.69,1.64,1.87v4.63c0,1.6,0.69,2.04,1.39,2c1.22-0.06,2.51-1.94,2.51-4.51v-3.67c0-0.08,0.06-0.08,0.09-0.09
			c0.25-0.06,0.61-0.1,0.93-0.1c0.34,0,0.65,0.02,0.93,0.1c0.04,0,0.1,0.04,0.1,0.09V70.38z"/>
	</g>
	<g>
		<g>
			<g>
				<path class="st3" d="M47.38,37.18c0-3.61-0.13-7.22,0.03-10.82c0.18-4.02,2.03-7.24,5.62-9.16c1.46-0.78,3.2-1.27,4.85-1.38
					c3.3-0.21,6.63-0.2,9.94-0.03c5.7,0.3,10.7,4.59,11.94,10.01c1.5,6.51-0.74,12.43-6.07,15.21c-1.84,0.96-4.04,1.4-6.13,1.68
					c-2.11,0.28-4.28,0.06-6.43,0.09c-1.91,0.03-2.51,0.69-2.49,2.61c0.01,0.97,0.04,1.95,0,2.92c-0.05,1.17-0.75,1.82-1.87,1.84
					c-2.63,0.06-5.26,0.08-7.89,0.03c-1.12-0.02-1.57-0.76-1.56-1.88c0.03-3.7,0.01-7.41,0.01-11.11
					C47.35,37.18,47.36,37.18,47.38,37.18z"/>
			</g>
		</g>
		<path class="st4" d="M69.05,23.65h-8.19v1.56h2.89c1.08,0.18,1.88,0.61,2.21,1.19h-5.1v1.56h5c-0.06,0.08-0.19,0.11-0.19,0.21
			c0,1.92-2.72,0.84-4.38,0.81l-0.15,0v1.07l5.47,5.5h2.2l-5.06-5.09c0.95-0.11,2.14-0.4,2.95-1.13c0.42-0.38,0.71-0.84,0.86-1.37
			h1.49V26.4h-1.43c-0.1-0.43-0.29-0.83-0.58-1.19h2.02V23.65z"/>
	</g>
	<path class="st5" d="M58.72,25.64c0.16,0.04,0.31,0.15,0.4,0.31c0.18,0.31,0.07,0.71-0.24,0.89l-2.47,1.42
		c-0.02,0.01-0.04,0.03-0.06,0.04c-0.16,0.09-0.34,0.11-0.5,0.06c-0.15-0.04-0.28-0.13-0.37-0.26c-0.03-0.04-0.05-0.08-0.07-0.12
		l-1.41-2.46c-0.09-0.16-0.11-0.33-0.06-0.5c0.04-0.16,0.15-0.31,0.31-0.4c0.31-0.18,0.71-0.07,0.89,0.24l0.66,1.15
		c1.38-3.88,5.08-6.67,9.43-6.69c5.52-0.01,10.04,4.48,10.05,10c0.01,5.54-4.49,10.05-10.03,10.05c-5.19,0-9.47-3.96-9.98-9.02
		c-0.04-0.38,0.26-0.72,0.65-0.72l0,0c0.33,0,0.62,0.25,0.65,0.58c0.44,4.4,4.16,7.84,8.68,7.84c4.89,0,8.86-4.05,8.72-8.98
		c-0.13-4.63-3.91-8.37-8.53-8.46c-3.85-0.08-7.15,2.34-8.38,5.75l1.19-0.68C58.38,25.62,58.56,25.6,58.72,25.64z"/>
</g>
<g>
	<rect x="19.73" y="77.94" class="st6" width="32.02" height="3.37"/>
	<rect x="19.73" y="81.31" class="st7" width="32.02" height="3.37"/>
	<rect x="71.13" y="77.94" class="st6" width="32.02" height="3.37"/>
	<rect x="71.13" y="81.31" class="st7" width="32.02" height="3.37"/>
</g>
<g>
	<path d="M19.26,91.78c1.1,0,1.64,0.63,1.64,1.39c0,0.55-0.29,1.14-1.08,1.33l1.15,1.92h-0.91L19,94.57h-0.58v1.86h-0.76v-4.64
		H19.26z M19.26,92.4h-0.84v1.56h0.84c0.59,0,0.86-0.33,0.86-0.79C20.12,92.7,19.86,92.4,19.26,92.4z"/>
	<path d="M23.47,96.49c-1.06,0-1.84-0.75-1.84-1.91s0.75-1.9,1.84-1.9c1.05,0,1.79,0.73,1.79,1.81c0,0.13-0.01,0.25-0.03,0.37h-2.81
		c0.05,0.61,0.49,0.98,1.05,0.98c0.47,0,0.73-0.23,0.87-0.51h0.82C24.95,95.97,24.37,96.49,23.47,96.49z M22.43,94.25h2.04
		c-0.01-0.57-0.46-0.93-1.03-0.93C22.92,93.32,22.51,93.67,22.43,94.25z"/>
	<path d="M27.56,92.68c0.9,0,1.49,0.45,1.7,1.22h-0.82c-0.13-0.35-0.42-0.58-0.88-0.58c-0.61,0-1.02,0.46-1.02,1.26
		c0,0.81,0.41,1.26,1.02,1.26c0.45,0,0.74-0.2,0.88-0.58h0.82c-0.21,0.72-0.8,1.22-1.7,1.22c-1.06,0-1.8-0.75-1.8-1.91
		C25.76,93.43,26.51,92.68,27.56,92.68z"/>
	<path d="M30.03,91.48h0.76v1.69c0.25-0.31,0.67-0.49,1.14-0.49c0.82,0,1.46,0.54,1.46,1.57v2.17h-0.76v-2.06
		c0-0.67-0.37-1.02-0.92-1.02c-0.56,0-0.93,0.35-0.93,1.02v2.06h-0.76V91.48z"/>
	<path d="M35.85,92.68c0.62,0,1.05,0.29,1.28,0.59v-0.54h0.77v3.68h-0.77v-0.55c-0.23,0.31-0.67,0.61-1.29,0.61
		c-0.96,0-1.72-0.78-1.72-1.92C34.11,93.43,34.88,92.68,35.85,92.68z M36.01,93.34c-0.57,0-1.12,0.43-1.12,1.22
		c0,0.8,0.55,1.26,1.12,1.26c0.57,0,1.12-0.45,1.12-1.24C37.13,93.79,36.59,93.34,36.01,93.34z"/>
	<path d="M39.67,96.43H38.9v-3.68h0.76v0.54c0.21-0.37,0.58-0.59,1.1-0.59v0.79h-0.19c-0.56,0-0.91,0.23-0.91,1.02V96.43z"/>
	<path d="M42.96,92.68c0.6,0,1.05,0.28,1.28,0.59v-0.54H45v3.74c0,1-0.65,1.76-1.8,1.76c-0.98,0-1.71-0.49-1.8-1.3h0.76
		c0.11,0.38,0.52,0.64,1.05,0.64c0.59,0,1.03-0.36,1.03-1.1v-0.62c-0.23,0.31-0.68,0.62-1.28,0.62c-0.97,0-1.74-0.78-1.74-1.92
		C41.22,93.43,41.99,92.68,42.96,92.68z M43.12,93.34c-0.57,0-1.12,0.43-1.12,1.22c0,0.8,0.55,1.26,1.12,1.26
		c0.57,0,1.12-0.45,1.12-1.24C44.23,93.79,43.69,93.34,43.12,93.34z"/>
	<path d="M47.59,96.49c-1.06,0-1.84-0.75-1.84-1.91s0.75-1.9,1.84-1.9c1.05,0,1.79,0.73,1.79,1.81c0,0.13-0.01,0.25-0.03,0.37h-2.81
		c0.05,0.61,0.49,0.98,1.05,0.98c0.47,0,0.73-0.23,0.87-0.51h0.82C49.08,95.97,48.5,96.49,47.59,96.49z M46.55,94.25h2.04
		c-0.01-0.57-0.46-0.93-1.03-0.93C47.04,93.32,46.63,93.67,46.55,94.25z"/>
	<path d="M51.88,91.78h0.76v4.64h-0.76V91.78z"/>
	<path d="M59.36,94.12c0,1.43-0.98,2.31-2.47,2.31h-1.52v-4.64h1.52C58.39,91.78,59.36,92.68,59.36,94.12z M56.9,95.8
		c1.1,0,1.68-0.63,1.68-1.68c0-1.06-0.59-1.72-1.68-1.72h-0.76v3.4H56.9z"/>
	<path d="M59.88,91.78h3.24v0.62h-1.24v4.02h-0.76V92.4h-1.24V91.78z"/>
	<path d="M66.84,94.39h-2.19v2.03H63.9v-4.64h0.76v1.99h2.19v-1.99h0.76v4.64h-0.76V94.39z"/>
	<path d="M70.35,91.78h0.76v4.64h-0.76V91.78z"/>
	<path d="M75.39,96.47c-0.93,0-1.64-0.51-1.64-1.33h0.82c0.03,0.38,0.3,0.69,0.83,0.69c0.53,0,0.83-0.29,0.83-0.68
		c0-1.12-2.47-0.39-2.47-2.11c0-0.82,0.65-1.32,1.6-1.32c0.89,0,1.52,0.47,1.58,1.26H76.1c-0.03-0.31-0.3-0.6-0.78-0.61
		c-0.44-0.01-0.78,0.2-0.78,0.65c0,1.05,2.46,0.39,2.46,2.09C76.99,95.8,76.42,96.47,75.39,96.47z"/>
	<path d="M77.9,91.48h0.76v1.69c0.25-0.31,0.67-0.49,1.14-0.49c0.82,0,1.46,0.54,1.46,1.57v2.17h-0.76v-2.06
		c0-0.67-0.37-1.02-0.92-1.02c-0.56,0-0.93,0.35-0.93,1.02v2.06H77.9V91.48z"/>
	<path d="M83.84,96.49c-1.05,0-1.84-0.75-1.84-1.91s0.83-1.9,1.88-1.9c1.05,0,1.88,0.74,1.88,1.9S84.89,96.49,83.84,96.49z
		 M83.84,95.82c0.57,0,1.13-0.41,1.13-1.24c0-0.83-0.54-1.24-1.11-1.24c-0.57,0-1.09,0.4-1.09,1.24
		C82.77,95.42,83.26,95.82,83.84,95.82z"/>
	<path d="M88.55,92.68c0.97,0,1.73,0.75,1.73,1.88c0,1.14-0.76,1.92-1.73,1.92c-0.61,0-1.04-0.31-1.28-0.6v2.29h-0.76v-5.43h0.76
		v0.54C87.5,92.98,87.95,92.68,88.55,92.68z M88.39,93.34c-0.57,0-1.12,0.45-1.12,1.24c0,0.8,0.55,1.24,1.12,1.24
		c0.58,0,1.12-0.46,1.12-1.26C89.51,93.77,88.96,93.34,88.39,93.34z"/>
	<path d="M93.09,92.68c0.97,0,1.73,0.75,1.73,1.88c0,1.14-0.76,1.92-1.73,1.92c-0.61,0-1.04-0.31-1.28-0.6v2.29h-0.76v-5.43h0.76
		v0.54C92.04,92.98,92.49,92.68,93.09,92.68z M92.92,93.34c-0.57,0-1.12,0.45-1.12,1.24c0,0.8,0.55,1.24,1.12,1.24
		c0.58,0,1.12-0.46,1.12-1.26C94.05,93.77,93.5,93.34,92.92,93.34z"/>
	<path d="M95.48,91.77c0-0.27,0.21-0.49,0.49-0.49c0.27,0,0.48,0.21,0.48,0.49c0,0.27-0.21,0.49-0.48,0.49
		C95.7,92.26,95.48,92.04,95.48,91.77z M95.58,92.74h0.76v3.68h-0.76V92.74z"/>
	<path d="M99.96,94.37c0-0.67-0.37-1.02-0.92-1.02c-0.56,0-0.93,0.35-0.93,1.02v2.06h-0.76v-3.68h0.76v0.42
		c0.25-0.3,0.66-0.48,1.1-0.48c0.86,0,1.51,0.54,1.51,1.57v2.17h-0.76V94.37z"/>
	<path d="M103.17,92.68c0.6,0,1.05,0.28,1.28,0.59v-0.54h0.77v3.74c0,1-0.65,1.76-1.8,1.76c-0.98,0-1.71-0.49-1.8-1.3h0.75
		c0.11,0.38,0.52,0.64,1.05,0.64c0.59,0,1.03-0.36,1.03-1.1v-0.62c-0.23,0.31-0.67,0.62-1.28,0.62c-0.97,0-1.74-0.78-1.74-1.92
		C101.43,93.43,102.2,92.68,103.17,92.68z M103.33,93.34c-0.57,0-1.12,0.43-1.12,1.22c0,0.8,0.55,1.26,1.12,1.26
		c0.57,0,1.12-0.45,1.12-1.24C104.45,93.79,103.91,93.34,103.33,93.34z"/>
</g>
<path class="st8" d="M66.97,78.99L66.97,78.99c0-0.04,0-0.08,0-0.11c0-1.54-1.3-2.87-2.9-2.87c-1.17,0-2.18,0.75-2.64,1.71h0
	C60.98,76.75,59.97,76,58.8,76c-1.6,0-2.9,1.33-2.9,2.87c0,0.04,0,0.08,0,0.11h0c0,0-0.16,1.83,1.87,3.82
	c0.92,0.93,1.96,1.81,3.66,3.19c1.7-1.38,2.74-2.26,3.66-3.19C67.13,80.81,66.97,78.99,66.97,78.99z"/>
</svg>
