<?xml version="1.0" encoding="utf-8"?>
<!-- Generator: Adobe Illustrator 26.1.0, SVG Export Plug-In . SVG Version: 6.00 Build 0)  -->
<svg version="1.1" id="Layer_1" xmlns="http://www.w3.org/2000/svg" xmlns:xlink="http://www.w3.org/1999/xlink" x="0px" y="0px"
	 viewBox="0 0 1920 1920" style="enable-background:new 0 0 1920 1920;" xml:space="preserve">
<style type="text/css">
	.st0{fill:#213366;stroke:#213366;stroke-width:0.6496;stroke-miterlimit:10;}
	.st1{fill:#5BC0ED;stroke:#5BC0ED;stroke-width:0.6496;stroke-miterlimit:10;}
	.st2{fill:#213366;stroke:#213366;stroke-width:1.3592;stroke-miterlimit:10;}
	.st3{fill:#FFFFFF;}
	.st4{fill:#5BC0ED;}
	.st5{fill:#213366;stroke:#213366;stroke-width:0.6361;stroke-miterlimit:10;}
	.st6{fill:#5BC0ED;stroke:#5BC0ED;stroke-width:0.6361;stroke-miterlimit:10;}
	.st7{fill:#CA2027;}
</style>
<g>
	<g>
		<g>
			<path class="st0" d="M785.48,989.47c0,27.17-24.39,42.67-41.8,42.15c-4.01-0.17-7.14-1.39-7.14-3.48c0-0.87,1.22-1.74,3.83-2.44
				c10.28-2.96,24.56-14.98,24.56-34.14c0-11.15-6.1-29.44-30.83-29.44c-6.1,0-10.97,1.39-11.5,1.57v108.86
				c0,0.7-0.52,0.7-0.87,0.87c-2.26,0.52-6.44,0.87-9.41,0.87c-3.14,0-6.79-0.35-9.41-0.87c-0.52-0.17-0.87-0.35-0.87-0.87v-95.97
				c0.7-16.02-11.32-11.32-11.32-15.68c0-4.53,20.03-12.72,46.85-12.72C769.11,948.19,785.48,966.31,785.48,989.47z"/>
			<path class="st0" d="M796.45,957.07c0-6.1,5.57-11.15,12.37-11.15s12.54,5.05,12.54,11.15c0,6.27-5.75,11.5-12.54,11.5
				S796.45,963.34,796.45,957.07z M799.07,1058.27v-71.59c0-0.7,0.35-0.7,0.87-0.87c2.09-0.52,5.05-1.04,8.01-1.04
				c2.96,0,6.44,0.35,9.06,1.04c0.35,0,0.7,0.17,0.7,0.87v62.36c0,13.59,5.57,13.24,10.62,13.59c0.87,0.17,1.22,0.87,1.22,1.74
				c0,2.96-5.4,10.97-15.68,10.97C804.47,1075.34,799.07,1068.9,799.07,1058.27z"/>
			<path class="st0" d="M846.79,1008.98c0-12.54-5.57-12.37-10.45-12.71c-0.87-0.17-1.22-0.87-1.22-1.74c0-2.96,5.4-10.8,15.68-10.8
				c9.06,0,13.59,5.92,14.11,14.98c0.17,2.96,0.17,5.92,0.17,8.88h0.52c5.75-14.46,17.94-23.51,30.31-23.86
				c14.81-0.35,24.04,8.88,24.04,27.52c0,11.67,0,24.39,0,37.97c0,13.41,5.57,13.06,10.45,13.59c0.87,0.17,1.39,0.87,1.39,1.74
				c0,2.79-5.57,10.8-15.85,10.8c-9.41,0-14.63-6.27-14.63-16.9v-42.67c0-14.63-6.27-18.81-12.89-18.46
				c-10.97,0.7-22.99,18.64-22.99,41.45v33.62c0,0.7-0.52,0.87-0.87,0.87c-2.26,0.52-5.4,1.05-8.36,1.05
				c-3.13,0-6.27-0.35-8.88-1.05c-0.35,0-0.87-0.17-0.87-0.87C846.62,1057.05,846.79,1027.96,846.79,1008.98z"/>
			<path class="st1" d="M1034.55,989.47c0,27.17-24.39,42.67-41.8,42.15c-4.01-0.17-7.14-1.39-7.14-3.48c0-0.87,1.22-1.74,3.83-2.44
				c10.28-2.96,24.56-14.98,24.56-34.14c0-11.15-6.1-29.44-30.83-29.44c-6.1,0-10.97,1.39-11.5,1.57v108.86
				c0,0.7-0.52,0.7-0.87,0.87c-2.26,0.52-6.44,0.87-9.41,0.87c-3.14,0-6.79-0.35-9.41-0.87c-0.52-0.17-0.87-0.35-0.87-0.87v-95.97
				c0.7-16.02-11.32-11.32-11.32-15.68c0-4.53,20.03-12.72,46.85-12.72C1018.18,948.19,1034.55,966.31,1034.55,989.47z"/>
			<path class="st1" d="M1131.05,1062.63c0.87,0.17,1.22,0.87,1.22,1.74c0,4.01-6.27,10.8-15.68,10.8c-9.23,0-14.63-6.1-14.81-18.64
				h-0.35c-5.22,11.5-15.68,18.64-28.22,18.64c-20.38,0-34.31-17.77-34.31-45.29c0-24.04,14.63-45.98,35.71-45.98
				c11.67,0,21.6,6.1,26.48,16.37h0.52l0.87-13.59c0-0.7,0.35-0.7,0.87-0.87c2.44-0.52,4.7-0.87,7.66-0.87s6.44,0.35,8.88,0.87
				c0.52,0.17,0.87,0.35,0.87,0.87c0,14.8-0.35,43.72-0.35,62.53C1120.42,1062.63,1125.99,1062.28,1131.05,1062.63z
				 M1101.78,1030.05c0-16.55-8.54-33.27-22.47-33.27c-11.15,0-21.08,12.71-21.25,31.87c-0.35,22.29,10.28,33.27,21.08,33.27
				C1091.51,1061.93,1101.78,1046.43,1101.78,1030.05z"/>
			<path class="st1" d="M1223.01,1073.25c0,28.04-14.98,44.76-40.06,44.76c-24.38,0-35.36-16.37-35.36-21.95
				c0-1.04,0.7-1.57,1.39-1.57c3.83,0,10.62,10.8,28.74,10.8c17.59,0,26.65-12.19,26.65-30.13v-23.51h-0.35
				c-5.75,14.63-17.77,23.17-30.13,23.51c-14.98,0.35-24.21-8.88-24.21-27.69v-37.62c0-13.24-5.75-12.89-10.62-13.24
				c-0.7,0-1.22-0.87-1.22-1.74c0-2.96,5.4-10.97,15.68-10.97c9.41,0,14.98,6.27,14.98,17.07v42.33c0,14.63,6.27,18.64,12.71,18.29
				c11.15-0.52,22.99-17.77,22.99-41.28v-33.62c0-0.7,0.52-0.7,0.87-0.87c2.26-0.52,5.57-0.87,8.54-0.87c3.14,0,5.92,0.17,8.54,0.87
				c0.35,0,0.87,0.35,0.87,0.87V1073.25z"/>
		</g>
		<g>
			<g>
				<g>
					<path class="st2" d="M831.47,769.72c0-32.98-1.19-66.01,0.32-98.92c1.68-36.74,18.59-66.21,51.39-83.72
						c13.33-7.12,29.3-11.65,44.37-12.61c30.18-1.92,60.63-1.86,90.85-0.29c52.09,2.71,97.82,41.93,109.21,91.5
						c13.67,59.53-6.74,113.6-55.52,139.02c-16.84,8.77-36.93,12.76-56.02,15.32c-19.27,2.59-39.15,0.52-58.76,0.83
						c-17.42,0.28-22.93,6.3-22.77,23.83c0.08,8.9,0.36,17.81-0.03,26.69c-0.46,10.66-6.89,16.6-17.12,16.84
						c-24.05,0.56-48.13,0.72-72.18,0.27c-10.28-0.19-14.35-6.97-14.28-17.15c0.23-33.87,0.09-67.75,0.09-101.62
						C831.17,769.72,831.32,769.72,831.47,769.72z"/>
				</g>
			</g>
			<path class="st3" d="M1029.62,645.99H954.7v14.25h26.45c9.84,1.61,17.2,5.61,20.21,10.88H954.7v14.25h45.7
				c-0.51,0.7-1.76,1.04-1.76,1.94c0,17.53-24.89,7.65-40,7.4l-1.34-0.02v9.8l50.02,50.29h20.13l-46.29-46.54
				c8.69-0.98,19.56-3.62,27.01-10.35c3.82-3.45,6.45-7.66,7.84-12.52h13.6v-14.25h-13.11c-0.89-3.97-2.68-7.62-5.35-10.88h18.46
				V645.99z"/>
		</g>
		<path class="st4" d="M935.15,664.26c1.48,0.4,2.8,1.36,3.62,2.8c1.64,2.86,0.65,6.52-2.21,8.16l-22.6,12.97
			c-0.18,0.13-0.37,0.26-0.57,0.38c-1.44,0.83-3.08,0.99-4.57,0.58c-1.35-0.36-2.58-1.19-3.41-2.42c-0.25-0.35-0.46-0.73-0.62-1.13
			l-12.89-22.47c-0.82-1.43-0.99-3.06-0.59-4.54c0.4-1.48,1.36-2.8,2.8-3.62c2.86-1.64,6.52-0.65,8.16,2.21l6.01,10.48
			c12.59-35.51,46.46-61.03,86.21-61.13c50.45-0.13,91.79,41,91.92,91.45c0.13,50.66-41.05,91.92-91.68,91.92
			c-47.43,0-86.56-36.21-91.22-82.43c-0.35-3.52,2.42-6.57,5.95-6.57l0,0c3.05,0,5.64,2.29,5.94,5.32
			c4.03,40.22,38.06,71.72,79.32,71.72c44.74,0,80.99-37.04,79.69-82.06c-1.22-42.29-35.7-76.49-78-77.37
			c-35.16-0.73-65.34,21.43-76.65,52.56l10.84-6.22C932.04,664.02,933.67,663.86,935.15,664.26z"/>
	</g>
	<g>
		<rect x="578.64" y="1142.39" class="st5" width="292.76" height="30.82"/>
		<rect x="578.64" y="1173.2" class="st6" width="292.76" height="30.82"/>
		<rect x="1048.6" y="1142.39" class="st5" width="292.76" height="30.82"/>
		<rect x="1048.6" y="1173.2" class="st6" width="292.76" height="30.82"/>
	</g>
	<g>
		<path d="M574.39,1268.87c10.09,0,15.05,5.81,15.05,12.72c0,5.02-2.69,10.4-9.85,12.17l10.52,17.62h-8.32l-9.79-17.01h-5.32v17.01
			h-6.97v-42.51H574.39z M574.39,1274.56h-7.71v14.25h7.71c5.44,0,7.89-3,7.89-7.22C582.28,1277.32,579.83,1274.56,574.39,1274.56z"
			/>
		<path d="M612.86,1311.94c-9.67,0-16.82-6.85-16.82-17.43s6.85-17.37,16.82-17.37c9.6,0,16.39,6.67,16.39,16.58
			c0,1.16-0.06,2.26-0.24,3.43h-25.75c0.49,5.57,4.47,8.93,9.6,8.93c4.28,0,6.67-2.08,7.95-4.71h7.52
			C626.44,1307.23,621.12,1311.94,612.86,1311.94z M603.32,1291.51h18.66c-0.12-5.2-4.22-8.5-9.42-8.5
			C607.85,1283.01,604.05,1286.19,603.32,1291.51z"/>
		<path d="M650.29,1277.13c8.26,0,13.64,4.1,15.54,11.19h-7.52c-1.16-3.24-3.85-5.32-8.01-5.32c-5.63,0-9.36,4.16-9.36,11.5
			c0,7.4,3.73,11.56,9.36,11.56c4.16,0,6.73-1.83,8.01-5.32h7.52c-1.9,6.61-7.28,11.19-15.54,11.19c-9.67,0-16.52-6.85-16.52-17.43
			C633.78,1283.98,640.63,1277.13,650.29,1277.13z"/>
		<path d="M672.8,1266.12h6.97v15.48c2.32-2.81,6.12-4.47,10.46-4.47c7.52,0,13.4,4.96,13.4,14.38v19.88h-6.91v-18.84
			c0-6.18-3.36-9.36-8.44-9.36c-5.14,0-8.5,3.18-8.5,9.36v18.84h-6.97V1266.12z"/>
		<path d="M726.08,1277.13c5.69,0,9.6,2.69,11.68,5.44v-4.89h7.04v33.71h-7.04v-5.02c-2.14,2.88-6.18,5.57-11.81,5.57
			c-8.75,0-15.78-7.16-15.78-17.56S717.21,1277.13,726.08,1277.13z M727.55,1283.19c-5.2,0-10.22,3.92-10.22,11.19
			s5.02,11.5,10.22,11.5c5.26,0,10.22-4.1,10.22-11.38C737.76,1287.29,732.81,1283.19,727.55,1283.19z"/>
		<path d="M760.94,1311.39h-6.97v-33.71h6.97v4.89c1.96-3.36,5.32-5.44,10.09-5.44v7.22h-1.77c-5.14,0-8.32,2.14-8.32,9.3V1311.39z"
			/>
		<path d="M791.04,1277.13c5.51,0,9.6,2.57,11.68,5.44v-4.89h7.04v34.26c0,9.18-5.93,16.09-16.46,16.09
			c-8.99,0-15.66-4.47-16.52-11.93h6.91c1.04,3.49,4.77,5.87,9.6,5.87c5.38,0,9.42-3.3,9.42-10.03v-5.63
			c-2.14,2.88-6.18,5.63-11.68,5.63c-8.87,0-15.91-7.16-15.91-17.56S782.17,1277.13,791.04,1277.13z M792.5,1283.19
			c-5.2,0-10.22,3.92-10.22,11.19s5.02,11.5,10.22,11.5c5.26,0,10.22-4.1,10.22-11.38C802.72,1287.29,797.76,1283.19,792.5,1283.19z
			"/>
		<path d="M833.42,1311.94c-9.67,0-16.82-6.85-16.82-17.43s6.85-17.37,16.82-17.37c9.6,0,16.39,6.67,16.39,16.58
			c0,1.16-0.06,2.26-0.24,3.43h-25.75c0.49,5.57,4.47,8.93,9.6,8.93c4.28,0,6.67-2.08,7.95-4.71h7.52
			C847,1307.23,841.68,1311.94,833.42,1311.94z M823.88,1291.51h18.66c-0.12-5.2-4.22-8.5-9.42-8.5
			C828.41,1283.01,824.61,1286.19,823.88,1291.51z"/>
		<path d="M872.57,1268.87h6.97v42.51h-6.97V1268.87z"/>
		<path d="M941.07,1290.28c0,13.09-8.93,21.1-22.57,21.1h-13.89v-42.51h13.89C932.14,1268.87,941.07,1277.13,941.07,1290.28z
			 M918.5,1305.7c10.03,0,15.42-5.75,15.42-15.42c0-9.73-5.38-15.72-15.42-15.72h-6.91v31.14H918.5z"/>
		<path d="M945.78,1268.87h29.67v5.69h-11.32v36.83h-6.97v-36.83h-11.38V1268.87z"/>
		<path d="M1009.46,1292.79h-20v18.6h-6.97v-42.51h6.97v18.23h20v-18.23h6.97v42.51h-6.97V1292.79z"/>
		<path d="M1041.5,1268.87h6.97v42.51h-6.97V1268.87z"/>
		<path d="M1087.56,1311.82c-8.5,0-15.05-4.65-15.05-12.17h7.46c0.31,3.49,2.75,6.3,7.59,6.3c4.89,0,7.65-2.63,7.65-6.24
			c0-10.28-22.57-3.61-22.57-19.27c0-7.46,5.93-12.11,14.62-12.11c8.14,0,13.89,4.28,14.5,11.56h-7.71
			c-0.25-2.88-2.75-5.51-7.16-5.63c-4.04-0.12-7.16,1.83-7.16,5.93c0,9.6,22.51,3.61,22.51,19.15
			C1102.24,1305.7,1097.04,1311.82,1087.56,1311.82z"/>
		<path d="M1110.5,1266.12h6.97v15.48c2.32-2.81,6.12-4.47,10.46-4.47c7.52,0,13.4,4.96,13.4,14.38v19.88h-6.91v-18.84
			c0-6.18-3.37-9.36-8.44-9.36c-5.14,0-8.5,3.18-8.5,9.36v18.84h-6.97V1266.12z"/>
		<path d="M1164.81,1311.94c-9.6,0-16.88-6.85-16.88-17.43s7.59-17.37,17.19-17.37c9.6,0,17.19,6.79,17.19,17.37
			S1174.48,1311.94,1164.81,1311.94z M1164.81,1305.88c5.2,0,10.34-3.73,10.34-11.38s-4.95-11.32-10.15-11.32
			c-5.26,0-9.97,3.67-9.97,11.32S1159.55,1305.88,1164.81,1305.88z"/>
		<path d="M1207.93,1277.13c8.87,0,15.84,6.85,15.84,17.25s-6.97,17.56-15.84,17.56c-5.57,0-9.54-2.81-11.75-5.44v20.92h-6.97
			v-49.73h6.97v4.96C1198.33,1279.82,1202.43,1277.13,1207.93,1277.13z M1206.4,1283.19c-5.2,0-10.22,4.1-10.22,11.32
			c0,7.28,5.02,11.38,10.22,11.38c5.26,0,10.28-4.22,10.28-11.5S1211.67,1283.19,1206.4,1283.19z"/>
		<path d="M1249.4,1277.13c8.87,0,15.84,6.85,15.84,17.25s-6.97,17.56-15.84,17.56c-5.57,0-9.54-2.81-11.75-5.44v20.92h-6.97v-49.73
			h6.97v4.96C1239.8,1279.82,1243.9,1277.13,1249.4,1277.13z M1247.87,1283.19c-5.2,0-10.22,4.1-10.22,11.32
			c0,7.28,5.02,11.38,10.22,11.38c5.26,0,10.28-4.22,10.28-11.5S1253.14,1283.19,1247.87,1283.19z"/>
		<path d="M1271.24,1268.75c0-2.51,1.96-4.46,4.47-4.46c2.45,0,4.4,1.96,4.4,4.46c0,2.51-1.96,4.47-4.4,4.47
			C1273.2,1273.22,1271.24,1271.26,1271.24,1268.75z M1272.16,1277.68h6.97v33.71h-6.97V1277.68z"/>
		<path d="M1312.22,1292.55c0-6.18-3.37-9.36-8.44-9.36c-5.14,0-8.5,3.18-8.5,9.36v18.84h-6.97v-33.71h6.97v3.85
			c2.26-2.75,6-4.4,10.03-4.4c7.89,0,13.83,4.96,13.83,14.38v19.88h-6.91V1292.55z"/>
		<path d="M1341.58,1277.13c5.51,0,9.6,2.57,11.68,5.44v-4.89h7.03v34.26c0,9.18-5.93,16.09-16.46,16.09
			c-8.99,0-15.66-4.47-16.52-11.93h6.91c1.04,3.49,4.77,5.87,9.6,5.87c5.38,0,9.42-3.3,9.42-10.03v-5.63
			c-2.14,2.88-6.18,5.63-11.68,5.63c-8.87,0-15.9-7.16-15.9-17.56S1332.71,1277.13,1341.58,1277.13z M1343.05,1283.19
			c-5.2,0-10.22,3.92-10.22,11.19s5.02,11.5,10.22,11.5c5.26,0,10.22-4.1,10.22-11.38
			C1353.26,1287.29,1348.31,1283.19,1343.05,1283.19z"/>
	</g>
	<path class="st7" d="M1010.58,1151.95L1010.58,1151.95c0.01-0.35,0.02-0.69,0.02-1.05c0-14.07-11.86-26.26-26.5-26.26
		c-10.7,0-19.91,6.89-24.1,15.66H960c-4.18-8.78-13.4-15.66-24.1-15.66c-14.63,0-26.5,12.19-26.5,26.26c0,0.35,0.01,0.7,0.03,1.05h0
		c0,0-1.5,16.71,17.1,34.95c8.45,8.47,17.91,16.52,33.47,29.17c15.56-12.65,25.02-20.7,33.47-29.17
		C1012.07,1168.66,1010.58,1151.95,1010.58,1151.95z"/>
</g>
</svg>
